<?xml version="1.0" encoding="UTF-8" standalone="no"?><!--Created with Inkscape (http://www.inkscape.org/)--><svg width="3840" height="2160" viewBox="0 0 3840 2160" version="1.1" id="svg1" xml:space="preserve" xmlns="http://www.w3.org/2000/svg" xmlns:svg="http://www.w3.org/2000/svg"><defs id="defs1"/><path style="fill:none;stroke:#000;stroke-width:4.31703px;stroke-linecap:butt;stroke-linejoin:miter;stroke-opacity:1" d="m 231.48604,1900.2342 c 39.55722,-66.3261 96.30692,-130.7796 157.85692,-167.8094 C 527.71755,1649.1758 627.87513,1603.3211 753,1530" id="produce-from-natural-resources"/><path style="fill:none;stroke:#000;stroke-width:4.31703px;stroke-linecap:butt;stroke-linejoin:miter;stroke-opacity:1" d="M 879,545 C 760.27003,622 696.70631,700.1403 666.25423,804.14871 597.24347,1039.8535 679.38611,1326.5463 753,1530" id="produce-from-recycled-materials"/><path style="fill:none;stroke:#000;stroke-width:4.31703px;stroke-linecap:butt;stroke-linejoin:miter;stroke-opacity:1" d="m 753,1530 c 32.40001,-16.2773 30.26719,-49.9337 72.63179,-76.4337 20.6703,-12.9297 33.78092,-21.994 79.76755,-42.3048 C 997.07816,1370.7698 1099.6216,1320.7868 1137,1304" id="acquire-newly-produced"/><path style="fill:none;stroke:#000;stroke-width:4.31703px;stroke-linecap:butt;stroke-linejoin:miter;stroke-opacity:1" d="M 2917,600 C 2756.624,444.76068 2079.6701,359.22312 1863.9731,357.40673 1453.9693,353.95408 1138.9986,353.45372 879,545" id="recycle"/><path style="fill:none;stroke:#000;stroke-width:4.31703px;stroke-linecap:butt;stroke-linejoin:miter;stroke-opacity:1" d="M 3154,965 C 3137.7212,822.09815 3065.8153,664.63789 2917,600" id="dispose-hibernating"/><path style="fill:none;stroke:#000;stroke-width:4.31703px;stroke-linecap:butt;stroke-linejoin:miter;stroke-opacity:1" d="m 2427,832 c 142.2845,-37.1458 464.9531,-205.3733 490,-232" id="dispose-broken"/><path style="fill:none;stroke:#000;stroke-width:4.31703px;stroke-linecap:butt;stroke-linejoin:miter;stroke-opacity:1" d="m 3154,965 c 0,0 4.403,8.4531 -86.8322,83.129 -27.0587,22.1475 -57.9045,47.2999 -77.5567,63.025 -36.4081,29.1328 -142.36,106.2499 -235.6585,149.3998 -97.5362,45.1098 -180.5394,79.082 -302.4071,120.5441 -166.3727,56.6037 -340.5444,94.4785 -455.6701,96.3754 -138.6191,2.2839 -295.4443,-15.4331 -510.0707,-102.3394 -138.5666,-56.1082 -172.8943,-71.2874 -199.1879,-83.1134 -40.1361,-18.0519 -61.5449,-18.7999 -66.8406,-21.65" id="acquire-used"/><path style="fill:none;stroke:#000;stroke-width:4.23453px;stroke-linecap:butt;stroke-linejoin:miter;stroke-opacity:1" d="m 3154,965 c 0,0 -10.1593,-9.03349 -102.5108,63.8618 -28.7096,22.6612 -61.6946,46.6062 -81.1433,62.1685 -35.7122,28.5759 -139.6392,104.2192 -231.1547,146.5445 -95.6721,44.2477 -177.0891,77.5706 -296.6277,118.2403 -163.193,55.5219 -334.0361,92.6728 -446.9614,94.5335 -135.97,2.2402 -289.7971,-15.1404 -500.3226,-100.3836 -5.8841,-2.3825 -120.1659,-49.1226 -181.4882,-77.7087 -11.1673,-5.2058 -73.6036,-25.7014 -94.0151,-1.8858" id="abandon"/><path style="fill:none;stroke:#000;stroke-width:4.31703px;stroke-linecap:butt;stroke-linejoin:miter;stroke-opacity:1" d="M 2427,832 C 2380.1648,716.30478 2323.9066,651.75897 2149.2249,584.37296 1974.5432,516.98695 1730.0936,508.94924 1357,622" id="repair"/><path style="fill:none;stroke:#000;stroke-width:4.31703px;stroke-linecap:butt;stroke-linejoin:miter;stroke-opacity:1" d="m 3154,965 c 0,56.2208 25.111,167.5759 -53.8129,276.0207 C 3028.6987,1339.2488 2916.1401,1435.0251 2777,1464" id="refurbish"/><path style="fill:none;stroke:#000;stroke-width:4.31703px;stroke-linecap:butt;stroke-linejoin:miter;stroke-opacity:1" d="m 2917,600 c 31.1212,-18.34541 73.7661,-46.23669 107.8694,-66.932 34.1033,-20.69531 78.192,-37.2193 94.0198,-50.70412 15.8279,-13.48482 17.0461,-24.18138 56.9297,-51.69209 39.8836,-27.51071 25.3509,-18.53057 79.8403,-49.32837 145.2349,-82.08795 336.308,-220.79784 440.7297,-278.52369" id="landfill"/><path style="fill:none;stroke:#000;stroke-width:4.31703px;stroke-linecap:butt;stroke-linejoin:miter;stroke-opacity:1" d="m 1124.3296,1151.9553 c 107.9337,-39.0713 281.0183,-86.4544 338.1604,-104.3555 82.1169,-25.725 185.4866,-49.62793 284.2239,-72.07016 161.9655,-36.81351 321.6156,-88.97187 494.6822,-111.03089 C 2306.4899,856.20192 2362.9552,845.88831 2427,832" id="go-broken"/><path style="fill:none;stroke:#000;stroke-width:4.31703px;stroke-linecap:butt;stroke-linejoin:miter;stroke-opacity:1" d="m 1357,622 c -175.8572,74.84528 -431.75253,212.33282 -232.6704,529.9553" id="acquire-repaired"/><path style="fill:none;stroke:#000;stroke-width:4.31703px;stroke-linecap:butt;stroke-linejoin:miter;stroke-opacity:1" d="m 2777,1464 c -325.789,85.1733 -724.5782,148.7296 -900.8107,126.324 -169.7319,-21.5792 -518.344,-173.3441 -656.4131,-319.9535" id="acquire-refurbished"/><circle style="fill:none;fill-opacity:.983437;fill-rule:evenodd;stroke:#000;stroke-width:5.35178px;stroke-linecap:round;stroke-miterlimit:0;stroke-dasharray:none" id="recycled-materials" cx="879" cy="545" r="85.614594"/><circle style="fill:none;fill-opacity:.983437;fill-rule:evenodd;stroke:#000;stroke-width:5.3482px;stroke-linecap:round;stroke-miterlimit:0" id="hibernating-phones" r="98.985062" cy="965" cx="3154"/><circle style="fill:none;fill-opacity:.983437;fill-rule:evenodd;stroke:#000;stroke-width:5.348px;stroke-linecap:round;stroke-miterlimit:0;stroke-dasharray:none" id="disposed-phones" cx="2917" cy="600" r="96.09153"/><circle style="fill:none;fill-opacity:.983437;fill-rule:evenodd;stroke:#000;stroke-width:5.348px;stroke-linecap:round;stroke-miterlimit:0;stroke-dasharray:none" id="broken-phones" cx="2427" cy="832" r="77.892174"/><circle style="fill:none;fill-opacity:.983437;fill-rule:evenodd;stroke:#000;stroke-width:5.348px;stroke-linecap:round;stroke-miterlimit:0;stroke-dasharray:none" id="repaired-phones" cx="1357" cy="622" r="88.288689"/><circle style="fill:none;fill-opacity:.983437;fill-rule:evenodd;stroke:#000;stroke-width:5.3482px;stroke-linecap:round;stroke-miterlimit:0" id="phones-in-use" cx="1137" cy="1304" r="93.636871"/><circle style="fill:none;fill-opacity:.983437;fill-rule:evenodd;stroke:#000;stroke-width:5.3482px;stroke-linecap:round;stroke-miterlimit:0" id="refurbished-phones" cx="2777" cy="1464" r="93.636871"/><circle style="fill:none;fill-opacity:.983437;fill-rule:evenodd;stroke:#000;stroke-width:5.3482px;stroke-linecap:round;stroke-miterlimit:0" id="newly-produced-phones" cx="753" cy="1530" r="77.592308"/><rect style="fill:none;fill-opacity:.983437;fill-rule:evenodd;stroke:none;stroke-width:5.348px;stroke-linecap:round;stroke-miterlimit:0;stroke-dasharray:none" id="landfilled-phones" width="109.63789" height="109.63789" x="3121" y="555"/><rect style="fill:none;fill-opacity:.983437;fill-rule:evenodd;stroke:none;stroke-width:5.348px;stroke-linecap:round;stroke-miterlimit:0;stroke-dasharray:none" id="natural-resources" width="109.63789" height="109.63789" x="123" y="1824"/></svg>